<?xml version="1.0" encoding="UTF-8"?>
<svg id="Layer_1" xmlns="http://www.w3.org/2000/svg" version="1.1" viewBox="0 0 32 30">
  <!-- Generator: Adobe Illustrator 29.6.1, SVG Export Plug-In . SVG Version: 2.1.1 Build 9)  -->
  <defs>
    <style>
      .st0 {
        fill: #322eb9;
      }
    </style>
  </defs>
  <path class="st0" d="M25.17,3.54l-.02,9.6-5.25,3.64-3.07,4-.75,9.22c3.78-8.22,2.31-6.26,9.62-11.47l-3.7.41,4.96-4.4-.02-6.2"/>
  <path class="st0" d="M6.83,3.54l.02,9.6,5.25,3.64,3.07,4,.75,9.22c-3.78-8.22-2.31-6.26-9.62-11.47l3.7.41-4.96-4.4.02-6.2"/>
  <polygon points="16.07 14.03 14.01 16.1 16.07 18.16 16.07 19.57 12.6 16.1 14.72 13.97 16.07 0 16.07 14.03"/>
  <polygon points="16.07 14.03 18.13 16.1 16.07 18.16 16.07 19.57 19.55 16.1 17.43 13.97 16.07 0 16.07 14.03"/>
</svg>