<?xml version="1.0" encoding="UTF-8"?>
<svg id="Layer_1" xmlns="http://www.w3.org/2000/svg" version="1.1" viewBox="0 0 26 30">
  <!-- Generator: Adobe Illustrator 29.5.1, SVG Export Plug-In . SVG Version: 2.1.0 Build 141)  -->
  <defs>
    <style>
      .st0 {
        fill: #121430;
      }
    </style>
  </defs>
  <path class="st0" d="M5.59,21.13c-.69,0-1.28-.16-1.77-.47-.49-.31-.87-.76-1.13-1.34-.26-.58-.4-1.26-.4-2.04,0-.59.08-1.12.23-1.59.15-.47.37-.87.65-1.21s.63-.59,1.04-.77c.41-.18.87-.27,1.39-.27.34,0,.68.05,1.02.15.33.1.62.24.87.42.13.09.22.2.26.33s.05.26.03.38c-.02.12-.08.23-.16.31-.08.08-.18.13-.29.14-.12.01-.24-.03-.38-.13-.19-.14-.4-.24-.63-.31-.23-.06-.45-.1-.69-.1-.44,0-.82.1-1.13.31s-.54.5-.7.89c-.16.39-.23.87-.23,1.43s.08,1.04.23,1.43c.16.4.39.7.7.9s.68.31,1.13.31c.24,0,.47-.03.71-.1s.45-.17.66-.31c.14-.09.26-.13.37-.12.11.01.2.06.28.13.08.08.12.17.15.29.02.12.02.24-.02.36-.04.12-.11.23-.23.32-.25.21-.55.36-.9.47-.35.11-.7.17-1.06.17Z"/>
  <path class="st0" d="M11.65,21.13c-.64,0-1.2-.16-1.68-.48s-.85-.77-1.11-1.34c-.26-.58-.4-1.25-.4-2.03,0-.59.08-1.12.23-1.59.15-.47.37-.87.64-1.21s.61-.59,1.01-.77c.39-.18.83-.27,1.31-.27.65,0,1.21.16,1.68.47.48.31.85.76,1.11,1.33.26.57.39,1.25.39,2.03,0,.59-.07,1.12-.23,1.59-.15.47-.37.88-.64,1.22s-.61.6-1.01.78c-.39.18-.83.27-1.31.27ZM11.65,19.96c.41,0,.75-.11,1.04-.32.29-.21.5-.52.66-.92.15-.4.23-.88.23-1.44,0-.85-.17-1.51-.5-1.97-.34-.47-.81-.7-1.42-.7-.4,0-.75.1-1.03.31-.29.21-.51.51-.66.91-.15.4-.23.88-.23,1.45,0,.84.17,1.5.51,1.97.34.47.81.71,1.42.71Z"/>
  <path class="st0" d="M16.7,21.02c-.21,0-.37-.06-.47-.19s-.17-.3-.17-.54v-6.04c0-.23.06-.41.17-.54.11-.12.27-.19.47-.19h1.82c1.11,0,1.97.32,2.57.97.6.64.91,1.57.91,2.77,0,.6-.08,1.13-.23,1.6-.15.46-.38.85-.68,1.17-.3.32-.66.56-1.09.73-.43.17-.92.25-1.48.25h-1.82ZM17.26,19.89h1.18c.39,0,.73-.05,1.01-.16s.52-.27.71-.49.33-.49.43-.82c.09-.33.14-.71.14-1.15,0-.88-.19-1.53-.57-1.96-.38-.43-.96-.65-1.72-.65h-1.18v5.23Z"/>
  <path class="st0" d="M23.83,21.1c-.19,0-.34-.06-.45-.19-.1-.12-.16-.3-.16-.51v-6.25c0-.23.05-.4.16-.52.1-.12.25-.18.45-.18s.34.06.45.18c.1.12.16.29.16.52v6.25c0,.22-.05.39-.15.51-.1.12-.25.19-.45.19Z"/>
</svg>